<svg width="29" height="31" viewBox="0 0 29 31" fill="none" xmlns="http://www.w3.org/2000/svg">
<path d="M0 10C0 7.23858 2.23858 5 5 5H21C23.7614 5 26 7.23858 26 10V26C26 28.7614 23.7614 31 21 31H5C2.23858 31 0 28.7614 0 26V10Z" fill="black"/>
<path d="M0 9.29297C0 6.53155 2.23858 4.29297 5 4.29297H21C23.7614 4.29297 26 6.53155 26 9.29297V25.293C26 28.0544 23.7614 30.293 21 30.293H5C2.23858 30.293 0 28.0544 0 25.293V9.29297Z" fill="white"/>
<path fill-rule="evenodd" clip-rule="evenodd" d="M21 5.29297H5C2.79086 5.29297 1 7.08383 1 9.29297V25.293C1 27.5021 2.79086 29.293 5 29.293H21C23.2091 29.293 25 27.5021 25 25.293V9.29297C25 7.08383 23.2091 5.29297 21 5.29297ZM5 4.29297C2.23858 4.29297 0 6.53155 0 9.29297V25.293C0 28.0544 2.23858 30.293 5 30.293H21C23.7614 30.293 26 28.0544 26 25.293V9.29297C26 6.53155 23.7614 4.29297 21 4.29297H5Z" fill="black"/>
<path fill-rule="evenodd" clip-rule="evenodd" d="M4.93945 15.2026L7.06077 13.0813L13.714 19.7346L26.7955 6.65308L28.9168 8.7744L13.714 23.9772L4.93945 15.2026Z" fill="black"/>
</svg>
