<svg width="26" height="26" viewBox="0 0 26 26" fill="none" xmlns="http://www.w3.org/2000/svg">
<path fill-rule="evenodd" clip-rule="evenodd" d="M12.9385 0.25L12.9346 0.25002C9.55881 0.267332 6.32766 1.62274 3.94978 4.01898C1.57189 6.41523 0.241386 9.65671 0.250042 13.0325C0.258698 16.4084 1.60581 19.643 3.99595 22.027C6.3861 24.411 9.62415 25.7499 13 25.7499C16.3758 25.7499 19.6139 24.411 22.004 22.027C24.3942 19.643 25.7413 16.4084 25.75 13.0325C25.7586 9.65671 24.4281 6.41523 22.0502 4.01898C19.6723 1.62274 16.4412 0.267322 13.0654 0.25001L12.9385 0.25ZM10.148 2.11733C8.21947 2.6228 6.4426 3.63644 5.01451 5.07556C4.91162 5.17924 4.81095 5.28472 4.71253 5.39192C5.49735 5.90001 6.32405 6.3328 7.18149 6.68671C7.24214 6.5457 7.30485 6.40545 7.36959 6.26602C8.07654 4.74367 9.01493 3.34472 10.148 2.11733ZM3.77002 6.56782C2.60524 8.23929 1.91165 10.203 1.77499 12.25H5.88913C5.96041 10.8347 6.21778 9.4365 6.65331 8.09138C5.64921 7.68028 4.68318 7.17084 3.77002 6.56782ZM1.77502 13.75C1.9118 15.7978 2.60579 17.7613 3.77021 19.4322C4.67276 18.8362 5.62695 18.3316 6.61852 17.923C6.19171 16.5723 5.94402 15.1693 5.88341 13.75H1.77502ZM4.71276 20.608C4.82406 20.7293 4.93824 20.8483 5.05525 20.965C6.43981 22.346 8.14683 23.3295 9.99901 23.8422C8.9325 22.6547 8.04532 21.3123 7.36959 19.8572C7.28886 19.6833 7.2113 19.5082 7.13694 19.3319C6.29549 19.6823 5.4839 20.1088 4.71276 20.608ZM16.001 23.8422C17.8532 23.3295 19.5602 22.346 20.9447 20.965C21.0618 20.8483 21.1759 20.7293 21.2872 20.608C20.5161 20.1088 19.7045 19.6823 18.8631 19.3319C18.7887 19.5082 18.7111 19.6833 18.6304 19.8572C17.9547 21.3123 17.0675 22.6547 16.001 23.8422ZM22.2298 19.4321C23.3942 17.7613 24.0882 15.7978 24.225 13.75H20.1166C20.056 15.1693 19.8083 16.5723 19.3815 17.923C20.373 18.3316 21.3272 18.8362 22.2298 19.4321ZM24.225 12.25C24.0884 10.203 23.3948 8.23929 22.23 6.56783C21.3168 7.17084 20.3508 7.68028 19.3467 8.09138C19.7822 9.4365 20.0396 10.8347 20.1109 12.25H24.225ZM21.2875 5.39192C21.1891 5.28472 21.0884 5.17924 20.9855 5.07556C19.5574 3.63644 17.7805 2.6228 15.852 2.11733C16.9851 3.34472 17.9235 4.74367 18.6304 6.26602C18.6952 6.40545 18.7579 6.5457 18.8185 6.68671C19.676 6.3328 20.5026 5.90001 21.2875 5.39192ZM7.39123 12.25C7.46024 11.0074 7.68743 9.77992 8.06627 8.59724C9.41854 9.01405 10.8241 9.25965 12.25 9.32355V12.25H7.39123ZM8.59775 7.19112C9.78006 7.5476 11.0063 7.76067 12.25 7.82189V2.15083C10.7672 3.47635 9.56896 5.09128 8.73006 6.89779C8.68486 6.99514 8.64075 7.09292 8.59775 7.19112ZM13.75 12.25V9.32355C15.1759 9.25965 16.5815 9.01405 17.9337 8.59724C18.3126 9.77992 18.5398 11.0074 18.6088 12.25H13.75ZM13.75 7.82189C14.9937 7.76067 16.2199 7.5476 17.4023 7.19112C17.3592 7.09292 17.3151 6.99514 17.2699 6.89779C16.431 5.09128 15.2328 3.47635 13.75 2.15083V7.82189ZM13.75 13.75H18.6151C18.5564 14.9955 18.3389 16.2266 17.9692 17.4138C16.606 16.9904 15.1884 16.741 13.75 16.6766V13.75ZM13.75 18.1782C15.0103 18.2402 16.2525 18.4582 17.4494 18.8233C17.3916 18.9581 17.3318 19.0922 17.2699 19.2254C16.431 21.0319 15.2328 22.6468 13.75 23.9723V18.1782ZM12.25 13.75V16.6766C10.8116 16.741 9.39399 16.9904 8.03085 17.4138C7.66106 16.2266 7.44357 14.9955 7.38491 13.75H12.25ZM12.25 18.1782C10.9897 18.2402 9.74747 18.4582 8.55063 18.8233C8.60838 18.9581 8.66819 19.0922 8.73006 19.2254C9.56896 21.0319 10.7672 22.6468 12.25 23.9723V18.1782Z" fill="black"/>
</svg>
