<svg width="210" height="46" viewBox="0 0 210 46" fill="none" xmlns="http://www.w3.org/2000/svg">
<path d="M29.6953 13.3622L26.2937 18.2301C26.2593 18.2785 26.2134 18.3176 26.1599 18.3435C26.1065 18.3695 26.0474 18.3815 25.9881 18.3786C25.9288 18.3756 25.8712 18.3577 25.8206 18.3266C25.77 18.2955 25.7281 18.2521 25.6988 18.2004C24.3164 15.7319 21.6455 13.2906 18.6833 13.3029C17.9995 13.3029 17.3157 13.5498 16.9553 14.162C16.8185 14.4102 16.7381 14.6856 16.7198 14.9684C16.7014 15.2513 16.7456 15.5347 16.8492 15.7986C17.1628 16.5807 17.7169 17.2428 18.4315 17.6895C19.228 18.2121 20.0521 18.6917 20.9 19.1261C21.8405 19.6199 22.7909 20.1136 23.7314 20.6073C26.1332 21.881 29.5793 23.7793 30.4778 26.5317C30.5984 26.903 30.673 27.2876 30.7 27.6771C30.8308 29.6124 29.9989 31.2392 28.6709 32.5968C26.2023 35.1295 22.5267 35.6109 19.1597 35.6109C15.6593 35.6109 12.117 34.2952 9.16963 32.466C9.12813 32.4413 9.09235 32.408 9.06467 32.3685C9.03704 32.3289 9.01807 32.2839 9.00916 32.2365C8.9978 32.189 8.997 32.1396 9.00681 32.0919C9.01662 32.0441 9.03679 31.9991 9.06592 31.96L12.3886 27.2525C12.4188 27.2084 12.4588 27.1719 12.5055 27.1458C12.5522 27.1197 12.6042 27.1046 12.6576 27.1019C12.7105 27.0984 12.7635 27.1073 12.8123 27.1279C12.8612 27.1484 12.9046 27.1801 12.939 27.2204C13.9555 28.3477 15.1196 29.3325 16.3999 30.1481C17.7297 31.0311 19.1911 31.6976 20.7296 32.1229C21.7319 32.3697 23.0994 32.5351 23.9931 31.8884C24.2238 31.7216 24.4158 31.5068 24.5558 31.2589C24.7052 30.927 24.7272 30.5519 24.6175 30.2049C24.4404 29.6125 24.1169 29.0743 23.6771 28.6398C20.3693 25.1987 12.7983 24.0706 11.2407 19.3162C10.9734 18.5225 10.889 17.6786 10.9938 16.8477C11.1231 15.9996 11.4206 15.1858 11.8686 14.4542C12.3167 13.7225 12.9063 13.0877 13.6031 12.587C15.6667 11.0319 18.3846 10.4542 20.9222 10.4542C24.193 10.4542 26.7158 11.296 29.562 12.8364C29.6061 12.8603 29.6446 12.8933 29.6748 12.9333C29.7051 12.9734 29.7264 13.0194 29.7373 13.0684C29.7527 13.1174 29.7569 13.1692 29.7497 13.22C29.7424 13.2709 29.7238 13.3195 29.6953 13.3622Z" fill="#C4FE34"/>
<path d="M38.1797 28.9313C38.1797 29.2942 38.2266 29.8718 38.5969 30.0644C39.1103 30.3359 40.078 29.857 40.5322 29.6028C41.0374 29.3285 41.518 29.0114 41.9689 28.6549V22.4836L40.9691 20.8149C40.9463 20.7757 40.9325 20.732 40.9287 20.6868C40.9249 20.6416 40.9313 20.5962 40.9474 20.5538C40.9635 20.5114 40.9889 20.4732 41.0217 20.4419C41.0545 20.4106 41.0939 20.3871 41.137 20.373L42.1787 20.0422H42.1911L47.2219 18.6623C47.2665 18.6501 47.3133 18.6484 47.3587 18.6573C47.404 18.6663 47.4467 18.6856 47.4833 18.7138C47.5199 18.7421 47.5495 18.7785 47.5697 18.82C47.5898 18.8616 47.6001 18.9074 47.5996 18.9536V30.9876L48.4315 33.071C48.45 33.1164 48.457 33.1656 48.452 33.2142C48.4465 33.2629 48.4295 33.3095 48.4019 33.35C48.3754 33.3912 48.3389 33.425 48.2953 33.4483C48.2523 33.4716 48.2042 33.4837 48.1552 33.4833H42.2108C42.1309 33.4833 42.0543 33.4516 41.9979 33.3951C41.9413 33.3386 41.9097 33.262 41.9097 33.1821V31.6294C41.2307 32.1945 40.5067 32.7031 39.7448 33.15C38.8221 33.6334 37.7918 33.8746 36.7504 33.8511C34.1585 33.8511 32.554 32.2293 32.554 29.5978V22.4737L31.5666 20.8075C31.5432 20.7684 31.5289 20.7246 31.5247 20.6793C31.5205 20.6339 31.5266 20.5882 31.5425 20.5455C31.5584 20.5029 31.5836 20.4643 31.6165 20.4328C31.6493 20.4012 31.6887 20.3774 31.7319 20.3631L32.7761 20.0323L37.8094 18.6525C37.854 18.6398 37.901 18.638 37.9465 18.647C37.992 18.656 38.0347 18.6756 38.0711 18.7043C38.1094 18.7326 38.1401 18.7699 38.1604 18.813C38.1807 18.8561 38.1898 18.9036 38.1871 18.9511V28.9412L38.1797 28.9313Z" fill="#C4FE34"/>
<path d="M60.0088 30.9853V23.1898C60.0088 22.8417 59.9717 22.158 59.5919 21.9876C59.1324 21.7803 58.281 22.2715 57.9056 22.5109C57.4626 22.7984 57.0402 23.1168 56.6418 23.4638C56.6418 25.9718 56.6123 28.4773 56.6123 30.9853L57.4416 33.0688C57.4601 33.1142 57.4677 33.1634 57.4626 33.2122C57.4576 33.2611 57.4406 33.3079 57.4136 33.3487C57.3861 33.3895 57.349 33.4229 57.306 33.4459C57.2624 33.469 57.2144 33.4811 57.1653 33.481H50.52C50.4709 33.4814 50.4224 33.4694 50.3793 33.446C50.3363 33.4228 50.2997 33.3889 50.2732 33.3477C50.2457 33.3073 50.2282 33.2606 50.2232 33.212C50.2182 33.1633 50.2252 33.1141 50.2437 33.0688L51.0755 30.9829V22.1925L50.0335 20.8323C50.0034 20.7942 49.9834 20.7493 49.9749 20.7015C49.9664 20.6538 49.9694 20.6046 49.9844 20.5584C49.9989 20.5121 50.0245 20.4699 50.059 20.4356C50.0935 20.4012 50.1356 20.3756 50.1816 20.3609L51.2237 20.0301H51.2357L56.2669 18.6502C56.311 18.6381 56.358 18.6364 56.4031 18.6452C56.4486 18.654 56.4911 18.6731 56.5277 18.701C56.5647 18.7289 56.5943 18.7649 56.6153 18.8061C56.6358 18.8474 56.6463 18.8929 56.6468 18.939V20.4917C57.1653 20.0597 57.6789 19.6154 58.2289 19.2303C59.2155 18.5677 60.3867 18.235 61.5739 18.2799C63.3242 18.3071 64.7632 19.1365 65.3483 20.7657C65.9805 20.2473 66.6121 19.6895 67.2763 19.2278C68.2658 18.562 69.4415 18.229 70.6333 18.2774C71.4822 18.2762 72.3125 18.5205 73.0252 18.981C74.225 19.7907 74.689 21.1236 74.689 22.5307V31.2865L75.4002 33.0663C75.4187 33.112 75.4257 33.1616 75.4202 33.2107C75.4152 33.2598 75.3982 33.3068 75.3707 33.3477C75.3431 33.3882 75.3066 33.4213 75.2636 33.4441C75.2205 33.4669 75.1725 33.4787 75.1234 33.4786H68.5081C68.459 33.4789 68.4105 33.4669 68.3674 33.4436C68.3244 33.4203 68.2878 33.3865 68.2613 33.3453C68.2333 33.3044 68.2163 33.2574 68.2108 33.2083C68.2058 33.1592 68.2128 33.1095 68.2318 33.0638L69.0636 30.9829V23.1873C69.0636 22.8393 69.0291 22.158 68.6462 21.9851C68.1872 21.7778 67.3379 22.269 66.9605 22.5085C66.496 22.8113 66.0535 23.1471 65.6371 23.5132V31.2865L66.3483 33.0688C66.3664 33.1141 66.3734 33.1633 66.3684 33.212C66.3634 33.2606 66.3458 33.3073 66.3183 33.3477C66.2918 33.3889 66.2552 33.4228 66.2122 33.446C66.1692 33.4694 66.1206 33.4814 66.0716 33.481H59.4562C59.4072 33.4812 59.3591 33.4694 59.3161 33.4465C59.273 33.4237 59.2365 33.3906 59.209 33.3502C59.1814 33.3093 59.1644 33.2622 59.1594 33.2132C59.1539 33.1641 59.1609 33.1145 59.1794 33.0688L60.0088 30.9853Z" fill="#C4FE34"/>
<path d="M86.9802 30.9803V23.1847C86.9802 22.8367 86.9431 22.1554 86.5627 21.9826C86.1037 21.7752 85.2519 22.2664 84.877 22.5059C84.434 22.7942 84.0121 23.1125 83.6127 23.4588C83.6127 25.9668 83.5831 28.4747 83.5831 30.9828L84.4125 33.0662C84.4305 33.1116 84.4375 33.1607 84.432 33.2093C84.427 33.2579 84.41 33.3044 84.383 33.345C84.3554 33.3856 84.3189 33.419 84.2759 33.4422C84.2328 33.4655 84.1853 33.4779 84.1362 33.4784H77.4908C77.4423 33.4786 77.3942 33.4668 77.3512 33.4439C77.3082 33.4211 77.2711 33.388 77.2441 33.3476C77.2166 33.3067 77.1995 33.2597 77.194 33.2106C77.189 33.1615 77.196 33.1119 77.2146 33.0662L78.0464 30.9828V22.1874L77.0048 20.8298C76.9748 20.7916 76.9548 20.7467 76.9463 20.6991C76.9378 20.6514 76.9403 20.6024 76.9548 20.5561C76.9688 20.5099 76.9943 20.4677 77.0284 20.4333C77.0624 20.3988 77.1044 20.3731 77.1505 20.3583L78.1946 20.0275L83.2253 18.6476C83.2698 18.635 83.3169 18.6331 83.3624 18.6421C83.408 18.6511 83.4505 18.6708 83.487 18.6994C83.5251 18.728 83.5556 18.7654 83.5766 18.8083C83.5972 18.8513 83.6072 18.8986 83.6057 18.9463V20.4965C84.1237 20.067 84.6372 19.6202 85.1878 19.2351C86.1778 18.5726 87.352 18.2407 88.5423 18.2872C90.2926 18.3143 91.7321 19.1438 92.3167 20.7755C92.9488 20.2546 93.581 19.6992 94.2447 19.2351C95.2372 18.5642 96.4174 18.2278 97.6142 18.2748C98.4625 18.2716 99.2939 18.5152 100.006 18.9759C101.206 19.7881 101.67 21.1186 101.67 22.5281V31.2814L102.381 33.0637C102.4 33.109 102.407 33.1582 102.401 33.2069C102.396 33.2556 102.379 33.3022 102.352 33.3427C102.325 33.3839 102.288 33.4177 102.245 33.441C102.202 33.4643 102.153 33.4763 102.104 33.476H95.489C95.4399 33.4768 95.3919 33.4653 95.3488 33.4424C95.3053 33.4195 95.2687 33.3861 95.2422 33.3451C95.2137 33.3047 95.1957 33.2577 95.1896 33.2086C95.1841 33.1594 95.1911 33.1095 95.2102 33.0637L96.042 30.9803V23.1847C96.042 22.8367 96.0075 22.1529 95.6246 21.9826C95.1656 21.7752 94.3162 22.2664 93.9389 22.5059C93.4734 22.8079 93.0314 23.1437 92.6155 23.5106V31.284L93.3267 33.0637C93.3452 33.1095 93.3517 33.159 93.3467 33.2081C93.3417 33.2572 93.3247 33.3042 93.2967 33.3451C93.2697 33.3856 93.2331 33.4187 93.1901 33.4415C93.1465 33.4643 93.099 33.4762 93.0499 33.476H86.4346C86.3855 33.4763 86.337 33.4643 86.294 33.441C86.2509 33.4177 86.2144 33.3839 86.1873 33.3427C86.1598 33.3022 86.1428 33.2556 86.1378 33.2069C86.1323 33.1582 86.1393 33.109 86.1578 33.0637L86.9802 30.9803Z" fill="#C4FE34"/>
<path d="M109.931 28.255C110.805 30.1533 112.927 31.0519 114.845 31.0568C115.182 31.0589 115.517 31.0349 115.85 30.9852C116.981 30.8281 118.05 30.3741 118.948 29.6695C119.002 29.6255 119.071 29.6029 119.14 29.6061C119.21 29.6093 119.276 29.638 119.326 29.6868C119.378 29.7361 119.411 29.8017 119.42 29.8726C119.43 29.9436 119.415 30.0156 119.377 30.0768C118.025 32.3355 115.583 33.4291 113.122 33.7796C108.526 34.4485 104.423 32.1824 103.71 27.1368C102.996 22.0911 106.289 18.7759 110.869 18.1094C115.117 17.4898 117.798 19.208 118.696 23.6142C118.712 23.6801 118.705 23.7494 118.676 23.8108C118.647 23.8721 118.599 23.922 118.539 23.9524L117.578 24.4313L114.552 25.9519L109.933 28.255H109.931ZM113.5 23.9574C113.456 23.4604 113.338 22.9728 113.149 22.5108C112.626 21.2074 111.422 19.7954 109.928 20.4076C109.863 20.4348 109.8 20.467 109.74 20.5039C109.037 20.9211 108.753 21.8986 108.674 22.6811C108.574 23.8586 108.705 25.0443 109.059 26.1716L113.5 23.9574Z" fill="#C4FE34"/>
<path d="M121.23 30.9753V22.4614L120.243 20.7952C120.219 20.7562 120.204 20.7123 120.2 20.6669C120.195 20.6214 120.201 20.5755 120.217 20.5327C120.233 20.4899 120.258 20.4513 120.291 20.4198C120.325 20.3882 120.364 20.3647 120.408 20.3508L121.452 20.02H121.465L126.495 18.6401C126.54 18.6274 126.586 18.6253 126.632 18.6339C126.677 18.6424 126.72 18.6616 126.756 18.6896C126.794 18.7177 126.823 18.7539 126.843 18.7955C126.864 18.837 126.874 18.8827 126.873 18.9289V20.0003C127.558 19.3759 128.359 18.8912 129.231 18.5735C130.11 18.2286 131.078 18.1758 131.99 18.4229C132.052 18.4407 132.107 18.4783 132.146 18.53C132.185 18.5817 132.205 18.6446 132.205 18.7093V23.2069C132.206 23.2672 132.188 23.3262 132.154 23.3761C132.12 23.4259 132.071 23.4642 132.015 23.4858C131.959 23.5093 131.898 23.5148 131.839 23.5016C131.78 23.4882 131.727 23.4569 131.687 23.4118C131.318 23.0318 130.859 22.7505 130.353 22.5935C129.848 22.4365 129.31 22.4089 128.791 22.5132C128.075 22.6416 127.09 23.0933 126.903 23.8808C126.883 23.9615 126.873 24.0444 126.873 24.1276V30.9851L127.705 33.0686C127.723 33.1143 127.73 33.1639 127.725 33.213C127.72 33.2621 127.703 33.3091 127.675 33.35C127.648 33.3904 127.611 33.4235 127.568 33.4463C127.525 33.4692 127.477 33.481 127.428 33.4808H120.677C120.628 33.4817 120.58 33.4698 120.536 33.4465C120.493 33.4231 120.456 33.3891 120.43 33.3475C120.401 33.3071 120.383 33.2602 120.378 33.2109C120.372 33.1617 120.379 33.1119 120.398 33.0661L121.23 30.9753Z" fill="#C4FE34"/>
<path d="M134.093 11.9599C134.074 11.9108 134.066 11.8576 134.072 11.805C134.077 11.7524 134.096 11.7019 134.125 11.6579C134.154 11.6139 134.194 11.5778 134.241 11.5525C134.287 11.5273 134.339 11.5138 134.392 11.5132H145.043C147.604 11.5132 150.213 12.1624 152.158 13.9126C152.92 14.5902 153.536 15.4164 153.969 16.3404C154.401 17.2644 154.639 18.2669 154.671 19.2865C154.712 20.8665 154.259 22.4199 153.375 23.7299C152.33 25.24 150.825 26.3718 149.085 26.9562C149.085 26.9562 150.512 28.9952 151.59 30.3899C152.732 31.8674 154.024 33.2225 155.446 34.4333C155.478 34.4562 155.503 34.4862 155.521 34.521C155.539 34.5558 155.548 34.5942 155.548 34.6332C155.548 34.6723 155.539 34.7108 155.521 34.7455C155.503 34.7803 155.478 34.8103 155.446 34.8332L150.262 37.7609C150.145 37.8181 150.011 37.8301 149.886 37.7946C149.76 37.759 149.653 37.6784 149.583 37.5683L146.127 32.5252C144.735 30.4936 142.792 27.6029 142.792 27.6029H140.953V30.812L141.832 33.0139C141.853 33.0627 141.86 33.116 141.855 33.1686C141.849 33.2213 141.83 33.2717 141.8 33.3151C141.772 33.3598 141.732 33.3965 141.685 33.4216C141.639 33.4467 141.586 33.4593 141.533 33.4582H134.394C134.341 33.4588 134.289 33.446 134.243 33.4209C134.196 33.3959 134.157 33.3595 134.128 33.3151C134.098 33.2712 134.079 33.2204 134.073 33.1674C134.068 33.1143 134.075 33.0607 134.096 33.0115L134.972 30.8095V14.1619L134.093 11.9599ZM140.939 23.957H143.587C150.21 23.957 150.213 15.1616 143.587 15.1641H140.939V23.957Z" fill="#C4FE34"/>
<path d="M172.425 33.0663C172.444 33.1116 172.451 33.1608 172.445 33.2095C172.44 33.2582 172.423 33.3048 172.396 33.3453C172.369 33.3864 172.332 33.4203 172.289 33.4436C172.246 33.4669 172.197 33.4789 172.148 33.4785H166.264C166.184 33.4785 166.107 33.4468 166.05 33.3903C165.994 33.3338 165.962 33.2573 165.962 33.1774V32.2591C164.516 33.36 162.825 33.8365 160.978 33.8365C158.945 33.8365 156.886 33.0614 156.042 31.0643C155.197 29.0673 156 26.8827 157.407 25.3868C159.562 23.096 162.924 22.3406 165.945 22.3505C165.913 21.8025 165.765 21.2051 165.289 20.9039C163.338 19.6697 160.243 21.4741 158.623 22.6319C158.588 22.6569 158.547 22.6739 158.505 22.6817C158.462 22.6894 158.418 22.6877 158.376 22.6766C158.333 22.6656 158.294 22.6454 158.261 22.6177C158.227 22.5899 158.2 22.5552 158.182 22.5159L156.88 19.8005C156.863 19.7618 156.853 19.7197 156.853 19.6771C156.853 19.6344 156.863 19.5923 156.88 19.5536C156.894 19.5153 156.916 19.4802 156.944 19.4508C156.972 19.4214 157.006 19.3984 157.044 19.3833C161.383 17.5023 171.608 17.0012 171.608 23.8415V30.968L172.425 33.0663ZM165.962 24.9202C164.772 25.0355 163.672 25.608 162.894 26.5173C162.25 27.2579 161.746 28.344 161.801 29.3512C161.797 29.5548 161.841 29.7565 161.929 29.94C162.017 30.1235 162.147 30.2837 162.309 30.4077C162.956 30.8594 163.921 30.5904 164.531 30.1929C164.987 29.8843 165.358 29.4654 165.609 28.9752C165.86 28.485 165.983 27.9393 165.967 27.3887L165.962 24.9202Z" fill="#C4FE34"/>
<path d="M181.467 33.0637C181.485 33.1094 181.492 33.159 181.487 33.2081C181.482 33.2571 181.465 33.3042 181.437 33.3451C181.41 33.3857 181.373 33.4189 181.33 33.4417C181.287 33.4646 181.239 33.4763 181.19 33.4759H174.454C174.405 33.4765 174.356 33.4646 174.313 33.4412C174.27 33.4179 174.234 33.384 174.207 33.3426C174.179 33.302 174.161 33.2549 174.156 33.2057C174.151 33.1565 174.158 33.1068 174.178 33.0612L175.007 30.9778V22.4663L174.004 20.8001C173.982 20.7608 173.968 20.7168 173.964 20.6715C173.96 20.6262 173.967 20.5805 173.983 20.538C173.999 20.4954 174.024 20.457 174.057 20.4255C174.09 20.3939 174.129 20.3701 174.173 20.3557L175.217 20.025L180.25 18.6451C180.292 18.6339 180.336 18.6328 180.379 18.6418C180.422 18.6508 180.463 18.6697 180.497 18.6969C180.535 18.7251 180.567 18.7623 180.587 18.8054C180.608 18.8485 180.617 18.896 180.615 18.9437V30.9926L181.467 33.0637ZM180.272 13.6464C181.094 15.046 180.25 16.732 178.388 17.4158C176.527 18.0995 174.353 17.517 173.53 16.1173C172.709 14.7177 173.553 13.0317 175.414 12.3504C177.275 11.6691 179.45 12.2492 180.272 13.6464Z" fill="#C4FE34"/>
<path d="M193.405 30.9777V23.1821C193.405 22.8193 193.356 22.2417 192.988 22.0491C192.472 21.7776 191.507 22.2565 191.053 22.5107C190.566 22.7855 190.106 23.1027 189.675 23.4586V30.9802L190.507 33.0636C190.526 33.109 190.533 33.1581 190.527 33.2068C190.522 33.2555 190.505 33.3022 190.478 33.3425C190.451 33.3837 190.414 33.4176 190.371 33.4409C190.328 33.4642 190.279 33.4762 190.23 33.4758H183.494C183.445 33.4759 183.397 33.4638 183.353 33.4407C183.31 33.4177 183.273 33.3843 183.246 33.3435C183.219 33.3028 183.202 33.2559 183.197 33.2071C183.192 33.1583 183.199 33.109 183.218 33.0636L183.988 31.1308V22.365L183.047 20.7976C183.021 20.7567 183.006 20.7102 183.002 20.6621C182.998 20.6139 183.006 20.5655 183.025 20.5211C183.042 20.4781 183.068 20.4397 183.102 20.4088C183.137 20.378 183.178 20.3556 183.223 20.3434L189.3 18.6302C189.344 18.6178 189.391 18.616 189.437 18.625C189.483 18.634 189.525 18.6536 189.562 18.682C189.6 18.7103 189.631 18.7477 189.652 18.7907C189.672 18.8337 189.682 18.8812 189.68 18.9289V20.489C190.358 19.9233 191.083 19.4147 191.845 18.9684C192.788 18.4755 193.843 18.2349 194.906 18.2698C197.471 18.2896 199.04 19.9262 199.04 22.5231V30.9752L199.873 33.0586C199.891 33.1044 199.898 33.154 199.893 33.2031C199.888 33.2522 199.871 33.2992 199.843 33.3401C199.816 33.3805 199.779 33.4136 199.736 33.4364C199.693 33.4593 199.645 33.4711 199.596 33.4709H192.86C192.81 33.4715 192.762 33.4596 192.719 33.4362C192.676 33.4129 192.639 33.379 192.613 33.3376C192.584 33.297 192.567 33.2499 192.562 33.2007C192.557 33.1515 192.564 33.1018 192.583 33.0562L193.405 30.9777Z" fill="#C4FE34"/>
<path d="M196.681 1L197.305 4.78972L201.095 5.41397L197.305 6.03821L196.681 9.82793L196.057 6.03821L192.267 5.41397L196.057 4.78972L196.681 1Z" fill="#C4FE34"/>
<path d="M206.195 8.65125L206.611 11.1778L209.138 11.5939L206.611 12.0101L206.195 14.5365L205.779 12.0101L203.252 11.5939L205.779 11.1778L206.195 8.65125Z" fill="#C4FE34"/>
</svg>
